{
  "accessors": [
    {
      "bufferView": 1,
      "componentType": 5126,
      "count": 1470,
      "max": [
        1,
        1.8925199508666992,
        8.9441900253295898
      ],
      "min": [
        -1,
        -0.88700997829437256,
        -1
      ],
      "type": "VEC3"
    },
    {
      "bufferView": 1,
      "byteOffset": 17640,
      "componentType": 5126,
      "count": 1470,
      "max": [
        0.99996346235275269,
        1,
        1
      ],
      "min": [
        -0.99996346235275269,
        -1,
        -1
      ],
      "type": "VEC3"
    },
    {
      "bufferView": 0,
      "componentType": 5125,
      "count": 8796,
      "max": [
        1469
      ],
      "min": [
        0
      ],
      "type": "SCALAR"
    },
    {
      "bufferView": 1,
      "byteOffset": 35280,
      "componentType": 5126,
      "count": 5302,
      "max": [
        0.15240000188350677,
        1.8925199508666992,
        9.9702997207641602
      ],
      "min": [
        -0.15240000188350677,
        -0.14369000494480133,
        -0.44804000854492188
      ],
      "type": "VEC3"
    },
    {
      "bufferView": 1,
      "byteOffset": 98904,
      "componentType": 5126,
      "count": 5302,
      "max": [
        0.99999731779098511,
        1,
        1
      ],
      "min": [
        -0.99999606609344482,
        -0.99915874004364014,
        -1
      ],
      "type": "VEC3"
    },
    {
      "bufferView": 0,
      "byteOffset": 35184,
      "componentType": 5125,
      "count": 16725,
      "max": [
        5301
      ],
      "min": [
        0
      ],
      "type": "SCALAR"
    }
  ],
  "asset": {
    "extras": {
      "author": "protorenaissance (https://sketchfab.com/protorenaissance)",
      "license": "CC-BY-4.0 (http://creativecommons.org/licenses/by/4.0/)",
      "source": "https://sketchfab.com/models/543f6c56a6c4459db2e68e90e5781156",
      "title": "A Urinal"
    },
    "generator": "Sketchfab-3.18.5",
    "version": "2.0"
  },
  "bufferViews": [
    {
      "buffer": 0,
      "byteLength": 102084,
      "byteOffset": 0,
      "name": "floatBufferViews",
      "target": 34963
    },
    {
      "buffer": 0,
      "byteLength": 162528,
      "byteOffset": 102084,
      "byteStride": 12,
      "name": "floatBufferViews",
      "target": 34962
    }
  ],
  "buffers": [
    {
      "byteLength": 264612,
      "uri": "scene.bin"
    }
  ],
  "extensionsRequired": [
    "KHR_materials_pbrSpecularGlossiness"
  ],
  "extensionsUsed": [
    "KHR_materials_pbrSpecularGlossiness"
  ],
  "materials": [
    {
      "doubleSided": true,
      "emissiveFactor": [
        0,
        0,
        0
      ],
      "extensions": {
        "KHR_materials_pbrSpecularGlossiness": {
          "diffuseFactor": [
            1,
            1,
            1,
            1
          ],
          "glossinessFactor": 0.79999999700000002,
          "specularFactor": [
            0.51733320949999995,
            0.51733320949999995,
            0.51733320949999995
          ]
        }
      },
      "name": "Terracotta"
    },
    {
      "doubleSided": true,
      "emissiveFactor": [
        0,
        0,
        0
      ],
      "extensions": {
        "KHR_materials_pbrSpecularGlossiness": {
          "diffuseFactor": [
            1,
            1,
            1,
            1
          ],
          "glossinessFactor": 0.79999999700000002,
          "specularFactor": [
            0.043908128736000002,
            0.043908128736000002,
            0.043908128736000002
          ]
        }
      },
      "name": "Metal"
    }
  ],
  "meshes": [
    {
      "name": "UrinalToilet_0",
      "primitives": [
        {
          "attributes": {
            "NORMAL": 1,
            "POSITION": 0
          },
          "indices": 2,
          "material": 0,
          "mode": 4
        }
      ]
    },
    {
      "name": "UrinalToilet_1",
      "primitives": [
        {
          "attributes": {
            "NORMAL": 4,
            "POSITION": 3
          },
          "indices": 5,
          "material": 1,
          "mode": 4
        }
      ]
    }
  ],
  "nodes": [
    {
      "children": [
        1
      ],
      "name": "RootNode (gltf orientation matrix)",
      "rotation": [
        -0.70710678118654746,
        -0,
        -0,
        0.70710678118654757
      ],
      "translation": [
        0,
        0.2,
        0
      ],
      "scale": [
        0.2,
        0.18,
        0.2
      ]
    },
    {
      "children": [
        2
      ],
      "name": "RootNode (model correction matrix)"
    },
    {
      "children": [
        3
      ],
      "name": "Root"
    },
    {
      "children": [
        4,
        5
      ],
      "matrix": [
        1.9685599999999999,
        0,
        0,
        0,
        0,
        1.56585,
        0,
        0,
        0,
        0,
        1,
        0,
        0,
        0,
        0,
        1
      ],
      "name": "UrinalToilet"
    },
    {
      "mesh": 0,
      "name": "UrinalToilet_0"
    },
    {
      "mesh": 1,
      "name": "UrinalToilet_1"
    }
  ],
  "scene": 0,
  "scenes": [
    {
      "name": "OSG_Scene",
      "nodes": [
        0
      ]
    }
  ]
}

